Coordinates
version=1
nRows=9
nColumns=53
inDegrees=yes

Units are S.I. units (second, meters, Newtons, ...)
If the header above contains a line with 'inDegrees', this indicates whether rotational values are in degrees (yes) or radians (no).

endheader
time	pelvis_tilt	pelvis_list	pelvis_rot	pelvis_tx	pelvis_ty	pelvis_tz	hip_flex_r	hip_add_r	hip_rot_r	pf_flex_r	pf_rot_r	pf_tilt_r	pf_tx_r	pf_ty_r	pf_tz_r	knee_flex_r	knee_add_r	knee_rot_r	knee_tx_r	knee_ty_r	knee_tz_r	ankle_flex_r	subt_angle_r	mtp_angle_r	hip_flex_l	hip_add_l	hip_rot_l	pf_l_r3	pf_l_tx	pf_l_ty	knee_flex_l	ankle_flex_l	subt_angle_l	mtp_angle_l	lumbar_ext	lumbar_latbend	lumbar_rot	neck_ext	neck_latbend	neck_rot	arm_add_r	arm_flex_r	arm_rot_r	elbow_flex_r	pro_sup_r	wrist_flex_r	arm_add_l	arm_flex_l	arm_rot_l	elbow_flex_l	pro_sup_l	wrist_flex_l
      6.95600000	     -5.55360553	      1.03320367	      4.30120278	      0.27117824	      0.90516892	      0.24702682	     18.10086419	      0.43052490	     -6.82970751	     12.70233562	      0.98123816	      0.22808753	      0.04886083	     -0.01053711	      0.00501421	     22.60324247	      1.08172337	      1.17488892	      0.00421793	      0.00010489	     -0.00173504	     10.65691678	    -15.23085367	      0.00000000	     22.05938537	      3.65800106	      1.22940283	      0.06513700	      0.04435000	     -0.41871200	      1.07394280	     -0.01310543	     -0.25609965	      0.00000000	     -5.86767548	      0.93137544	     -3.43422328	      0.00000000	      0.00000000	      0.00000000	      0.00000000	      0.00000000	      0.00000000	      0.00000000	     60.00000000	      0.00000000	      0.00000000	      0.00000000	      0.00000000	      0.00000000	     60.00000000	      0.00000000
      6.96000000	     -5.49837129	      1.04875405	      4.21255969	      0.27510516	      0.90518646	      0.24782148	     17.80241250	      0.52640881	     -6.84572456	     12.75371597	      0.99414732	      0.25539872	      0.04881670	     -0.01063192	      0.00502631	     22.72519560	      1.08803419	      1.16219822	      0.00422496	      0.00009628	     -0.00174221	     10.65429881	    -15.22641122	      0.00000000	     22.40668879	      3.58958809	      1.24168179	      0.06513700	      0.04435000	     -0.41871200	      1.07120096	     -0.01274207	     -0.25623478	      0.00000000	     -5.86407022	      0.93169547	     -3.42716746	      0.00000000	      0.00000000	      0.00000000	      0.00000000	      0.00000000	      0.00000000	      0.00000000	     60.00000000	      0.00000000	      0.00000000	      0.00000000	      0.00000000	      0.00000000	     60.00000000	      0.00000000
      6.96400000	     -5.40889070	      1.04806375	      4.11218027	      0.27852724	      0.90560776	      0.24822363	     17.51662074	      0.58160733	     -6.85702687	     12.79969838	      1.00570193	      0.27957042	      0.04877734	     -0.01071615	      0.00503706	     22.83326965	      1.09360196	      1.15090934	      0.00423021	      0.00008804	     -0.00174962	     10.65477325	    -15.22474107	      0.00000000	     22.77663574	      3.53939484	      1.25254135	      0.06513700	      0.04435000	     -0.41871200	      1.06815003	     -0.01233960	     -0.25635490	      0.00000000	     -5.86204418	      0.93126676	     -3.42181872	      0.00000000	      0.00000000	      0.00000000	      0.00000000	      0.00000000	      0.00000000	      0.00000000	     60.00000000	      0.00000000	      0.00000000	      0.00000000	      0.00000000	      0.00000000	     60.00000000	      0.00000000
      6.96800000	     -5.30683974	      1.04133391	      4.01086955	      0.28162105	      0.90540620	      0.24859790	     17.22613892	      0.63724024	     -6.86920122	     12.84353692	      1.01671130	      0.30254833	      0.04873987	     -0.01079623	      0.00504728	     22.93577879	      1.09890623	      1.14015125	      0.00423690	      0.00008238	     -0.00175698	     10.65855184	    -15.22327292	      0.00000000	     23.16452321	      3.48382546	      1.26986302	      0.06513700	      0.04435000	     -0.41871200	      1.06481780	     -0.01187898	     -0.25647932	      0.00000000	     -5.86127502	      0.93078125	     -3.41614662	      0.00000000	      0.00000000	      0.00000000	      0.00000000	      0.00000000	      0.00000000	      0.00000000	     60.00000000	      0.00000000	      0.00000000	      0.00000000	      0.00000000	      0.00000000	     60.00000000	      0.00000000
      6.97200000	     -5.50778387	      0.86368663	      4.26080039	      0.28490619	      0.90589628	      0.24847006	     16.87038719	      0.86058333	     -6.80071684	     12.57633944	      0.94931664	      0.15973111	      0.04897066	     -0.01029874	      0.00498379	     22.29898124	      1.06623072	      1.20589386	      0.00420179	      0.00012300	     -0.00171293	     11.19770337	    -15.13219052	      0.00000000	     23.79462363	      3.54604792	      1.14667262	      0.06513700	      0.04435000	     -0.41871200	      1.05492786	     -0.00449643	     -0.26058203	      0.00000000	     -5.91281759	      0.92430583	     -3.19045711	      0.00000000	      0.00000000	      0.00000000	      0.00000000	      0.00000000	      0.00000000	      0.00000000	     60.00000000	      0.00000000	      0.00000000	      0.00000000	      0.00000000	      0.00000000	     60.00000000	      0.00000000
      6.97600000	     -5.42487536	      0.87279387	      4.13945812	      0.28840853	      0.90586219	      0.24903985	     16.56222971	      0.93073408	     -6.81779391	     12.62321012	      0.96122345	      0.18535394	      0.04892960	     -0.01038817	      0.00499522	     22.41302942	      1.07201055	      1.19433288	      0.00420879	      0.00011557	     -0.00172005	     11.19686112	    -15.13067495	      0.00000000	     24.17684195	      3.47705428	      1.16189626	      0.06513700	      0.04435000	     -0.41871200	      1.05193633	     -0.00412960	     -0.26062961	      0.00000000	     -5.91002483	      0.92578489	     -3.18496364	      0.00000000	      0.00000000	      0.00000000	      0.00000000	      0.00000000	      0.00000000	      0.00000000	     60.00000000	      0.00000000	      0.00000000	      0.00000000	      0.00000000	      0.00000000	     60.00000000	      0.00000000
      6.98000000	     -5.31018093	      0.86728006	      4.02046443	      0.29149004	      0.90586209	      0.24939566	     16.26998559	      0.98504807	     -6.83264951	     12.66512237	      0.97182156	      0.20805700	      0.04889315	     -0.01046719	      0.00500530	     22.51416417	      1.07717988	      1.18400224	      0.00421453	      0.00010910	     -0.00172712	     11.20015730	    -15.12985764	      0.00000000	     24.57654117	      3.41474855	      1.18001403	      0.06513700	      0.04435000	     -0.41871200	      1.04853047	     -0.00368554	     -0.26069920	      0.00000000	     -5.90811412	      0.92683294	     -3.17923542	      0.00000000	      0.00000000	      0.00000000	      0.00000000	      0.00000000	      0.00000000	      0.00000000	     60.00000000	      0.00000000	      0.00000000	      0.00000000	      0.00000000	      0.00000000	     60.00000000	      0.00000000
      6.98400000	     -5.18841057	      0.85732446	      3.90697148	      0.29441803	      0.90584524	      0.24971557	     15.97996268	      1.03888077	     -6.84781022	     12.70481685	      0.98183784	      0.22944253	      0.04885876	     -0.01054154	      0.00501478	     22.60939452	      1.08205643	      1.17423560	      0.00422058	      0.00010426	     -0.00173405	     11.20676608	    -15.12930421	      0.00000000	     24.98610066	      3.35417244	      1.20328636	      0.06513700	      0.04435000	     -0.41871200	      1.04481028	     -0.00316594	     -0.26079430	      0.00000000	     -5.90829989	      0.92805034	     -3.17318505	      0.00000000	      0.00000000	      0.00000000	      0.00000000	      0.00000000	      0.00000000	      0.00000000	     60.00000000	      0.00000000	      0.00000000	      0.00000000	      0.00000000	      0.00000000	     60.00000000	      0.00000000
      6.98800000	     -5.48050946	      0.70130783	      4.04765699	      0.29796799	      0.90620860	      0.24977265	     15.71302288	      1.25537589	     -6.88277671	     12.42665939	      0.91108864	      0.07619053	      0.04910336	     -0.01000706	      0.00494654	     21.92617624	      1.04729522	      1.24301501	      0.00418134	      0.00014677	     -0.00168593	     11.72067789	    -15.07988627	      0.00000000	     25.52918784	      3.44925075	      1.28407083	      0.06513700	      0.04435000	     -0.41871200	      1.02835660	      0.00469194	     -0.26389460	      0.00000000	     -6.02184815	      0.98714969	     -2.97555864	      0.00000000	      0.00000000	      0.00000000	      0.00000000	      0.00000000	      0.00000000	      0.00000000	     60.00000000	      0.00000000	      0.00000000	      0.00000000	      0.00000000	      0.00000000	     60.00000000	      0.00000000
